<svg width="87" height="87" viewBox="0 0 87 87" fill="none" xmlns="http://www.w3.org/2000/svg">
<path d="M66.6875 10.6033H20.5814C19.2867 10.6033 18.2371 11.6529 18.2371 12.9477V74.683C18.2371 75.9777 19.2867 77.0273 20.5814 77.0273H66.6875C67.9823 77.0273 69.0319 75.9777 69.0319 74.683V12.9477C69.0319 11.6529 67.9823 10.6033 66.6875 10.6033Z" fill="#84B484"/>
<path d="M55.1609 22.3252H26.2469C25.5995 22.3252 25.0747 22.85 25.0747 23.4974C25.0747 24.1448 25.5995 24.6696 26.2469 24.6696H55.1609C55.8083 24.6696 56.3331 24.1448 56.3331 23.4974C56.3331 22.85 55.8083 22.3252 55.1609 22.3252Z" fill="#547F54"/>
<path opacity="0.6" d="M61.2172 29.163H26.0515C25.512 29.163 25.0747 29.6003 25.0747 30.1398C25.0747 30.6793 25.512 31.1166 26.0515 31.1166H61.2172C61.7567 31.1166 62.194 30.6793 62.194 30.1398C62.194 29.6003 61.7567 29.163 61.2172 29.163Z" fill="#547F54"/>
<path opacity="0.6" d="M61.2172 34.0471H26.0515C25.512 34.0471 25.0747 34.4844 25.0747 35.0239C25.0747 35.5634 25.512 36.0007 26.0515 36.0007H61.2172C61.7567 36.0007 62.194 35.5634 62.194 35.0239C62.194 34.4844 61.7567 34.0471 61.2172 34.0471Z" fill="#547F54"/>
<path opacity="0.6" d="M51.4489 38.9312H26.0515C25.512 38.9312 25.0747 39.3685 25.0747 39.908C25.0747 40.4475 25.512 40.8848 26.0515 40.8848H51.4489C51.9884 40.8848 52.4258 40.4475 52.4258 39.908C52.4258 39.3685 51.9884 38.9312 51.4489 38.9312Z" fill="#547F54"/>
<path opacity="0.3" d="M62.194 45.769H25.0747V46.1597H62.194V45.769Z" fill="#547F54"/>
<path opacity="0.6" d="M61.2172 50.6531H26.0515C25.512 50.6531 25.0747 51.0904 25.0747 51.6299C25.0747 52.1694 25.512 52.6068 26.0515 52.6068H61.2172C61.7567 52.6068 62.194 52.1694 62.194 51.6299C62.194 51.0904 61.7567 50.6531 61.2172 50.6531Z" fill="#547F54"/>
<path opacity="0.6" d="M57.3099 55.5372H26.0515C25.512 55.5372 25.0747 55.9746 25.0747 56.5141C25.0747 57.0535 25.512 57.4909 26.0515 57.4909H57.3099C57.8494 57.4909 58.2867 57.0535 58.2867 56.5141C58.2867 55.9746 57.8494 55.5372 57.3099 55.5372Z" fill="#547F54"/>
<path opacity="0.6" d="M61.2172 60.4213H26.0515C25.512 60.4213 25.0747 60.8587 25.0747 61.3982C25.0747 61.9376 25.512 62.375 26.0515 62.375H61.2172C61.7567 62.375 62.194 61.9376 62.194 61.3982C62.194 60.8587 61.7567 60.4213 61.2172 60.4213Z" fill="#547F54"/>
<path opacity="0.6" d="M47.5417 65.3055H26.0515C25.512 65.3055 25.0747 65.7428 25.0747 66.2823C25.0747 66.8218 25.512 67.2591 26.0515 67.2591H47.5417C48.0811 67.2591 48.5185 66.8218 48.5185 66.2823C48.5185 65.7428 48.0811 65.3055 47.5417 65.3055Z" fill="#547F54"/>
</svg>
