<svg width="117" height="48" viewBox="0 0 117 48" fill="none" xmlns="http://www.w3.org/2000/svg">
<path d="M15.276 38V27.474C15.276 26.106 14.8453 24.9787 13.984 24.092C13.1227 23.2053 12.008 22.762 10.64 22.762C9.728 22.762 8.91733 22.9647 8.208 23.37C7.49867 23.7753 6.94133 24.3327 6.536 25.042C6.13067 25.7513 5.928 26.562 5.928 27.474L4.522 26.676C4.522 25.308 4.826 24.092 5.434 23.028C6.042 21.964 6.89067 21.128 7.98 20.52C9.06933 19.8867 10.298 19.57 11.666 19.57C13.034 19.57 14.2373 19.912 15.276 20.596C16.34 21.28 17.176 22.1793 17.784 23.294C18.392 24.3833 18.696 25.5487 18.696 26.79V38H15.276ZM2.508 38V19.95H5.928V38H2.508ZM31.0024 38.38C29.3557 38.38 27.861 37.9747 26.5184 37.164C25.1757 36.328 24.1117 35.2007 23.3264 33.782C22.5664 32.3633 22.1864 30.7673 22.1864 28.994C22.1864 27.2207 22.5664 25.6247 23.3264 24.206C24.1117 22.7873 25.163 21.66 26.4804 20.824C27.823 19.988 29.3304 19.57 31.0024 19.57C32.3704 19.57 33.5864 19.8613 34.6504 20.444C35.7397 21.0013 36.6137 21.7867 37.2724 22.8C37.931 23.788 38.2984 24.9407 38.3744 26.258V31.692C38.2984 32.984 37.931 34.1367 37.2724 35.15C36.639 36.1633 35.7777 36.9613 34.6884 37.544C33.6244 38.1013 32.3957 38.38 31.0024 38.38ZM31.5724 35.15C33.2697 35.15 34.6377 34.58 35.6764 33.44C36.715 32.2747 37.2344 30.7927 37.2344 28.994C37.2344 27.7527 36.9937 26.676 36.5124 25.764C36.0564 24.8267 35.3977 24.1047 34.5364 23.598C33.675 23.066 32.6744 22.8 31.5344 22.8C30.3944 22.8 29.381 23.066 28.4944 23.598C27.633 24.13 26.949 24.8647 26.4424 25.802C25.961 26.714 25.7204 27.7653 25.7204 28.956C25.7204 30.172 25.961 31.2487 26.4424 32.186C26.949 33.098 27.6457 33.82 28.5324 34.352C29.419 34.884 30.4324 35.15 31.5724 35.15ZM37.0064 38V33.136L37.6524 28.728L37.0064 24.358V19.95H40.4644V38H37.0064ZM47.9533 38V16.682C47.9533 15.4913 48.2067 14.44 48.7133 13.528C49.2453 12.5907 49.98 11.856 50.9173 11.324C51.8547 10.7667 52.9313 10.488 54.1473 10.488C55.0847 10.488 55.908 10.6527 56.6173 10.982C57.3267 11.286 57.9853 11.7167 58.5933 12.274L56.3513 14.516C56.022 14.2373 55.68 14.0347 55.3253 13.908C54.9707 13.756 54.578 13.68 54.1473 13.68C53.2607 13.68 52.5767 13.9587 52.0953 14.516C51.614 15.048 51.3733 15.77 51.3733 16.682V38H47.9533ZM43.5073 23.066V19.95H60.6453V23.066H43.5073ZM58.6693 38V19.95H62.1273V38H58.6693ZM60.3793 18.05C59.7713 18.05 59.2647 17.8473 58.8593 17.442C58.454 17.0113 58.2513 16.4793 58.2513 15.846C58.2513 15.238 58.454 14.7313 58.8593 14.326C59.2647 13.8953 59.7713 13.68 60.3793 13.68C61.038 13.68 61.5573 13.8953 61.9373 14.326C62.3427 14.7313 62.5453 15.238 62.5453 15.846C62.5453 16.4793 62.3427 17.0113 61.9373 17.442C61.5573 17.8473 61.038 18.05 60.3793 18.05ZM80.0345 38.456C78.0079 38.456 76.1332 38.1013 74.4105 37.392C72.7132 36.6827 71.2185 35.6947 69.9265 34.428C68.6345 33.1613 67.6339 31.692 66.9245 30.02C66.2152 28.3227 65.8605 26.4987 65.8605 24.548C65.8605 22.572 66.2152 20.748 66.9245 19.076C67.6339 17.404 68.6219 15.9473 69.8885 14.706C71.1552 13.4393 72.6372 12.464 74.3345 11.78C76.0572 11.0707 77.9319 10.716 79.9585 10.716C81.9599 10.716 83.8092 11.0707 85.5065 11.78C87.2292 12.464 88.7239 13.4393 89.9905 14.706C91.2825 15.9473 92.2832 17.4167 92.9925 19.114C93.7019 20.786 94.0565 22.61 94.0565 24.586C94.0565 26.5367 93.7019 28.3607 92.9925 30.058C92.2832 31.73 91.2952 33.1993 90.0285 34.466C88.7619 35.7073 87.2672 36.6827 85.5445 37.392C83.8472 38.1013 82.0105 38.456 80.0345 38.456ZM79.9585 33.022C81.5545 33.022 82.9479 32.6673 84.1385 31.958C85.3545 31.2487 86.2919 30.2607 86.9505 28.994C87.6092 27.702 87.9385 26.22 87.9385 24.548C87.9385 23.2813 87.7485 22.1413 87.3685 21.128C86.9885 20.0893 86.4439 19.2027 85.7345 18.468C85.0252 17.708 84.1765 17.138 83.1885 16.758C82.2259 16.3527 81.1492 16.15 79.9585 16.15C78.3625 16.15 76.9565 16.5047 75.7405 17.214C74.5499 17.898 73.6252 18.8733 72.9665 20.14C72.3079 21.3813 71.9785 22.8507 71.9785 24.548C71.9785 25.8147 72.1685 26.9673 72.5485 28.006C72.9285 29.0447 73.4605 29.944 74.1445 30.704C74.8539 31.4387 75.7025 32.0087 76.6905 32.414C77.6785 32.8193 78.7679 33.022 79.9585 33.022ZM105.269 38.418C103.065 38.418 101.165 38.0633 99.5689 37.354C97.9982 36.6193 96.5542 35.5173 95.2369 34.048L99.1129 30.21C99.9742 31.198 100.924 31.9707 101.963 32.528C103.027 33.06 104.256 33.326 105.649 33.326C106.916 33.326 107.891 33.098 108.575 32.642C109.284 32.186 109.639 31.5527 109.639 30.742C109.639 30.0073 109.411 29.412 108.955 28.956C108.499 28.5 107.891 28.1073 107.131 27.778C106.396 27.4487 105.573 27.132 104.661 26.828C103.774 26.524 102.888 26.182 102.001 25.802C101.114 25.3967 100.291 24.9027 99.5309 24.32C98.7962 23.712 98.2009 22.9647 97.7449 22.078C97.2889 21.166 97.0609 20.026 97.0609 18.658C97.0609 17.0113 97.4536 15.5927 98.2389 14.402C99.0496 13.2113 100.164 12.312 101.583 11.704C103.002 11.0707 104.636 10.754 106.485 10.754C108.36 10.754 110.07 11.0833 111.615 11.742C113.186 12.4007 114.478 13.3 115.491 14.44L111.615 18.278C110.804 17.442 109.981 16.8213 109.145 16.416C108.334 16.0107 107.41 15.808 106.371 15.808C105.332 15.808 104.509 16.0107 103.901 16.416C103.293 16.796 102.989 17.3533 102.989 18.088C102.989 18.772 103.217 19.3293 103.673 19.76C104.129 20.1653 104.724 20.52 105.459 20.824C106.219 21.128 107.042 21.432 107.929 21.736C108.841 22.04 109.74 22.3947 110.627 22.8C111.514 23.2053 112.324 23.7247 113.059 24.358C113.819 24.966 114.427 25.7513 114.883 26.714C115.339 27.6513 115.567 28.8167 115.567 30.21C115.567 32.7687 114.655 34.7827 112.831 36.252C111.007 37.696 108.486 38.418 105.269 38.418Z" fill="#84B484"/>
</svg>
