<svg width="67" height="67" viewBox="0 0 67 67" fill="none" xmlns="http://www.w3.org/2000/svg">
<path d="M33.5 0C57.4286 0 67 9.57143 67 33.5C67 57.4286 57.4286 67 33.5 67C9.57143 67 0 57.4286 0 33.5C0 9.57143 9.57143 0 33.5 0Z" fill="#84B484"/>
<g clip-path="url(#clip0_118_2445)">
<path d="M36.7824 39.4818L37.3716 29.2288C37.3913 28.8949 37.2538 28.6592 36.9591 28.5217C36.6645 28.3842 36.3797 28.4136 36.1047 28.61L31.4496 32.4402L30.4773 26.4003C30.438 26.2432 30.3791 26.1151 30.3005 26.0161C30.222 25.9171 30.1041 25.8684 29.947 25.87C29.7702 25.8504 29.628 25.9046 29.5204 26.0326C29.4127 26.1607 29.3487 26.3127 29.3283 26.4887L28.7685 36.7123C28.7488 37.0462 28.8863 37.2819 29.181 37.4194C29.4756 37.5569 29.7604 37.5274 30.0354 37.331L34.6905 33.5009L35.6333 39.5702C35.6726 39.7273 35.7362 39.8499 35.8242 39.9379C35.9122 40.0259 36.0352 40.0703 36.1931 40.0711C36.351 40.0719 36.4838 40.0176 36.5914 39.9084C36.6991 39.7992 36.7627 39.657 36.7824 39.4818ZM42.4981 42.4281C41.3982 43.528 40.1902 44.3919 38.8742 45.0196C37.5582 45.6474 36.1833 46.0504 34.7494 46.2288L34.7494 49.4697C34.7494 49.7054 34.7054 49.9262 34.6174 50.132C34.5294 50.3379 34.4065 50.5197 34.2486 50.6777C33.9146 51.0116 33.5218 51.1781 33.07 51.1774C32.6183 51.1766 32.2254 51.01 31.8915 50.6777C31.7344 50.5205 31.6118 50.339 31.5238 50.1332C31.4358 49.9274 31.3915 49.7062 31.3907 49.4697L31.3907 46.2288C29.9568 46.052 28.5823 45.6494 27.2671 45.0208C25.9518 44.3923 24.7435 43.528 23.642 42.4281C21.0099 39.7961 19.6939 36.6534 19.6939 33C19.6939 29.3466 21.0099 26.2039 23.642 23.5719L30.713 16.5008C31.3612 15.8527 32.1469 15.5282 33.07 15.5274C33.9932 15.5266 34.7789 15.8511 35.4271 16.5008L42.4981 23.5719C45.1301 26.2039 46.4461 29.3466 46.4461 33C46.4461 36.6534 45.1301 39.7961 42.4981 42.4281Z" fill="#111113"/>
</g>
<defs>
<clipPath id="clip0_118_2445">
<rect width="40" height="40" fill="white" transform="translate(4.78564 33) rotate(-45)"/>
</clipPath>
</defs>
</svg>
