<svg width="154" height="73" viewBox="0 0 154 73" fill="none" xmlns="http://www.w3.org/2000/svg">
<path d="M3.94175 55V32.6124H6.54407V37.0134C7.36049 35.4571 8.48306 34.258 9.91178 33.416C11.3405 32.5741 12.9096 32.1532 14.6189 32.1532C16.2773 32.1532 17.7825 32.5614 19.1347 33.3778C20.5124 34.1942 21.6095 35.355 22.4259 36.8603C23.2678 38.34 23.6888 40.1132 23.6888 42.1797V55H20.8568V42.6007C20.8568 40.3045 20.219 38.4421 18.9434 37.0134C17.6677 35.5846 16.0094 34.8703 13.9683 34.8703C12.6927 34.8703 11.5063 35.1892 10.4093 35.827C9.31223 36.4393 8.43203 37.3195 7.76869 38.4676C7.10536 39.5902 6.77369 40.9424 6.77369 42.5242V55H3.94175ZM41.6737 55.3062C40.143 55.3062 38.7015 55.0128 37.3493 54.426C35.9971 53.8392 34.798 53.0227 33.752 51.9767C32.7314 50.9052 31.9278 49.6805 31.341 48.3029C30.7542 46.8996 30.4608 45.4071 30.4608 43.8253C30.4608 42.218 30.7542 40.7255 31.341 39.3478C31.9278 37.9701 32.7314 36.7582 33.752 35.7122C34.798 34.6407 35.9971 33.8115 37.3493 33.2247C38.7015 32.6124 40.143 32.3062 41.6737 32.3062C43.5107 32.3062 45.1945 32.7144 46.7253 33.5309C48.2561 34.3473 49.5062 35.4316 50.4757 36.7838V32.6124H53.1163V55H50.4757V50.8286C49.5062 52.1808 48.2561 53.2651 46.7253 54.0815C45.1945 54.8979 43.5107 55.3062 41.6737 55.3062ZM42.0182 52.6656C43.6255 52.6656 45.0797 52.2701 46.3809 51.4792C47.7075 50.6883 48.7536 49.6295 49.519 48.3029C50.3099 46.9507 50.7053 45.4582 50.7053 43.8253C50.7053 42.1925 50.3099 40.7 49.519 39.3478C48.7536 37.9956 47.7075 36.9241 46.3809 36.1332C45.0797 35.3423 43.6255 34.9468 42.0182 34.9468C40.4108 34.9468 38.9438 35.3423 37.6172 36.1332C36.316 36.9241 35.27 37.9956 34.4791 39.3478C33.7137 40.6745 33.331 42.1542 33.331 43.7871C33.331 45.4454 33.7137 46.9507 34.4791 48.3029C35.27 49.6295 36.316 50.6883 37.6172 51.4792C38.9438 52.2701 40.4108 52.6656 42.0182 52.6656ZM64.8777 55V35.0234H59.3286V32.6124H64.9159V27.3695C64.9159 25.405 65.3369 23.7211 66.1788 22.3179C67.0208 20.8892 68.1433 19.7794 69.5465 18.9885C70.9753 18.1976 72.5443 17.8021 74.2537 17.8021C75.4783 17.8021 76.6264 17.9935 77.6979 18.3762C78.795 18.7333 79.7645 19.2564 80.6064 19.9452L79.841 22.9302C79.1522 22.1138 78.323 21.4887 77.3535 21.055C76.4095 20.5958 75.3635 20.3662 74.2154 20.3662C72.3019 20.3662 70.7329 21.004 69.5083 22.2796C68.2837 23.5553 67.6713 25.3284 67.6713 27.5991V32.6124H82.6347V55H79.8028V35.0234H67.7096V55H64.8777ZM107.782 55.574C105.333 55.574 103.037 55.1148 100.894 54.1963C98.7504 53.2779 96.8752 52.0022 95.2679 50.3694C93.6606 48.7366 92.3977 46.8486 91.4792 44.7055C90.5608 42.5369 90.1015 40.228 90.1015 37.7788C90.1015 35.3295 90.5608 33.0334 91.4792 30.8903C92.3977 28.7217 93.6606 26.8209 95.2679 25.1881C96.8752 23.5553 98.7504 22.2796 100.894 21.3612C103.062 20.4427 105.358 19.9835 107.782 19.9835C110.231 19.9835 112.515 20.4427 114.632 21.3612C116.775 22.2796 118.651 23.5553 120.258 25.1881C121.891 26.8209 123.166 28.7217 124.085 30.8903C125.003 33.0334 125.462 35.3295 125.462 37.7788C125.462 40.228 125.003 42.5369 124.085 44.7055C123.166 46.8486 121.891 48.7366 120.258 50.3694C118.651 52.0022 116.775 53.2779 114.632 54.1963C112.515 55.1148 110.231 55.574 107.782 55.574ZM107.782 52.7038C109.823 52.7038 111.724 52.3211 113.484 51.5558C115.27 50.7904 116.814 49.7188 118.115 48.3411C119.441 46.9634 120.475 45.3816 121.215 43.5957C121.954 41.7843 122.324 39.8453 122.324 37.7788C122.324 35.7122 121.954 33.786 121.215 32.0001C120.475 30.1887 119.441 28.5941 118.115 27.2164C116.814 25.8387 115.27 24.7672 113.484 24.0018C111.724 23.2364 109.823 22.8537 107.782 22.8537C105.741 22.8537 103.84 23.2364 102.08 24.0018C100.319 24.7672 98.7759 25.8387 97.4493 27.2164C96.1226 28.5941 95.0893 30.1887 94.3494 32.0001C93.6096 33.786 93.2396 35.7122 93.2396 37.7788C93.2396 39.8453 93.6096 41.7843 94.3494 43.5957C95.0893 45.3816 96.1226 46.9634 97.4493 48.3411C98.7759 49.7188 100.319 50.7904 102.08 51.5558C103.84 52.3211 105.741 52.7038 107.782 52.7038ZM140.257 55.4592C139.032 55.4592 137.859 55.2934 136.736 54.9617C135.613 54.6301 134.58 54.1581 133.636 53.5458C132.692 52.9335 131.863 52.2446 131.149 51.4792L131.991 47.8819C132.577 48.8004 133.292 49.6295 134.134 50.3694C135.001 51.1093 135.958 51.6961 137.004 52.1298C138.05 52.5635 139.172 52.7804 140.372 52.7804C141.8 52.7804 143.05 52.487 144.122 51.9002C145.219 51.2879 146.074 50.4715 146.686 49.4509C147.324 48.4049 147.643 47.2313 147.643 45.9301C147.643 44.7566 147.388 43.7488 146.877 42.9069C146.367 42.0394 145.716 41.2868 144.926 40.649C144.135 40.0111 143.306 39.4881 142.438 39.0799L138.037 36.8603C137.093 36.3755 136.149 35.7632 135.205 35.0234C134.287 34.2835 133.534 33.3905 132.947 32.3445C132.36 31.273 132.067 30.0101 132.067 28.5558C132.067 27.3567 132.297 26.2469 132.756 25.2264C133.215 24.1804 133.853 23.2746 134.669 22.5093C135.486 21.7439 136.443 21.1571 137.54 20.7489C138.637 20.3151 139.836 20.0983 141.137 20.0983C142.719 20.0983 144.186 20.3917 145.538 20.9785C146.916 21.5398 148.064 22.2286 148.982 23.045L148.102 26.6424C147.592 25.928 146.967 25.2774 146.227 24.6906C145.487 24.1038 144.67 23.6318 143.778 23.2746C142.885 22.9175 141.966 22.7389 141.022 22.7389C139.849 22.7389 138.802 22.994 137.884 23.5043C136.991 23.989 136.289 24.6523 135.779 25.4943C135.269 26.3362 135.014 27.2929 135.014 28.3645C135.014 29.334 135.218 30.1887 135.626 30.9285C136.06 31.6429 136.608 32.268 137.272 32.8037C137.935 33.3395 138.637 33.7987 139.377 34.1814L143.816 36.4011C144.607 36.7838 145.398 37.2557 146.188 37.817C147.005 38.3783 147.732 39.0544 148.37 39.8453C149.033 40.6107 149.569 41.4909 149.977 42.4859C150.385 43.4554 150.589 44.5524 150.589 45.7771C150.589 47.614 150.13 49.2723 149.212 50.7521C148.293 52.2063 147.056 53.3544 145.5 54.1963C143.969 55.0383 142.221 55.4592 140.257 55.4592Z" fill="#84B484"/>
</svg>
