<svg width="49" height="51" viewBox="0 0 49 51" fill="none" xmlns="http://www.w3.org/2000/svg">
<path d="M47.8831 2.51345C46.9912 2.17595 45.9786 2.39291 45.3036 3.04381C45.1349 3.21256 40.8197 7.31081 33.6357 3.69471C28.6937 1.21166 20.1356 -0.258891 12.2284 3.69471C1.95868 8.85368 -1.68152 21.7029 3.76673 33.1056C5.26139 28.911 7.40693 25.3672 10.2275 22.5466C17.0016 15.7966 25.174 15.7966 25.391 15.7243V16.5439C21.4838 17.6198 17.9212 19.6876 15.0489 22.5466C9.11854 28.477 6.10516 37.5173 6.10516 49.4504H10.9266C10.9266 46.6781 11.0953 44.195 11.4328 41.9289C13.0239 42.9173 14.7838 43.6646 16.6642 44.0986C18.2552 44.4843 19.8463 44.6289 21.4133 44.6289C27.2714 44.6289 32.5991 42.3146 35.2027 40.3619C39.5902 37.0592 43.2063 33.9253 46.7742 26.1627" stroke="#84B484" stroke-width="2.5"/>
</svg>
